HIERARCHY
ROOT Hips
{
	OFFSET 0.000000 0.000000 0.000000 
	CHANNELS 6 Xposition Yposition Zposition Zrotation Yrotation Xrotation
	JOINT LeftUpLeg
	{
		OFFSET 1.363060 -1.794630 0.839290 
		CHANNELS 3 Zrotation Yrotation Xrotation
		JOINT LeftLeg
		{
			OFFSET 2.448110 -6.726130 0.000000 
			CHANNELS 3 Zrotation Yrotation Xrotation
			JOINT LeftFoot
			{
				OFFSET 2.562200 -7.039590 0.000000 
				CHANNELS 3 Zrotation Yrotation Xrotation
				JOINT LeftToeBase
				{
					OFFSET 0.157640 -0.433110 2.322550 
					CHANNELS 3 Zrotation Yrotation Xrotation
					End Site
					{
						OFFSET 0.000000 0.000000 0.000000 
					}
				}
			}
		}
	}
	JOINT RightUpLeg
	{
		OFFSET -1.305520 -1.794630 0.839290 
		CHANNELS 3 Zrotation Yrotation Xrotation
		JOINT RightLeg
		{
			OFFSET -2.542530 -6.985550 0.000000 
			CHANNELS 3 Zrotation Yrotation Xrotation
			JOINT RightFoot
			{
				OFFSET -2.568260 -7.056230 0.000000 
				CHANNELS 3 Zrotation Yrotation Xrotation
				JOINT RightToeBase
				{
					OFFSET -0.164730 -0.452590 2.363150 
					CHANNELS 3 Zrotation Yrotation Xrotation
					End Site
					{
						OFFSET 0.000000 0.000000 0.000000 
					}
				}
			}
		}
	}
	JOINT Spine
	{
		OFFSET 0.028270 2.035590 -0.193380 
		CHANNELS 3 Zrotation Yrotation Xrotation
		JOINT Spine1
		{
			OFFSET 0.056720 2.048850 -0.042750 
			CHANNELS 3 Zrotation Yrotation Xrotation
			JOINT Neck1
			{
				OFFSET -0.054170 1.746240 0.172020 
				CHANNELS 3 Zrotation Yrotation Xrotation
				JOINT Head
				{
					OFFSET 0.104070 1.761360 -0.123970 
					CHANNELS 3 Zrotation Yrotation Xrotation
					End Site
					{
						OFFSET 0.000000 0.000000 0.000000 
					}
				}
			}
			JOINT LeftArm
			{
				OFFSET 3.362410 1.200890 -0.311210 
				CHANNELS 3 Zrotation Yrotation Xrotation
				JOINT LeftForeArm
				{
					OFFSET 4.983000 -0.000000 -0.000000 
					CHANNELS 3 Zrotation Yrotation Xrotation
					JOINT LeftHand
					{
						OFFSET 3.483560 -0.000000 -0.000000 
						CHANNELS 3 Zrotation Yrotation Xrotation
						JOINT LeftHandIndex1
						{
							OFFSET 0.715260 -0.000000 -0.000000 
							CHANNELS 3 Zrotation Yrotation Xrotation
							End Site
							{
								OFFSET 0.000000 0.000000 0.000000 
							}
						}
					}
				}
			}
			JOINT RightArm
			{
				OFFSET -3.136600 1.374050 -0.404650 
				CHANNELS 3 Zrotation Yrotation Xrotation
				JOINT RightForeArm
				{
					OFFSET -5.241900 -0.000000 -0.000000 
					CHANNELS 3 Zrotation Yrotation Xrotation
					JOINT RightHand
					{
						OFFSET -3.444170 -0.000000 -0.000000 
						CHANNELS 3 Zrotation Yrotation Xrotation
						JOINT RightHandIndex1
						{
							OFFSET -0.622530 -0.000000 -0.000000 
							CHANNELS 3 Zrotation Yrotation Xrotation
							End Site
							{
								OFFSET 0.000000 0.000000 0.000000 
							}
						}
					}
				}
			}
		}
	}
}
MOTION
Frames: 18
Frame Time: 0.041667
4.473552 17.644606 -26.676861 -6.534750 -2.167553 8.058369 -11.605765 -1.115088 -16.039655 1.413722 9.519364 25.974977 -2.004997 14.453253 -8.506976 0.007900 -0.573000 -1.574600 24.249291 2.679985 -11.474495 -1.409271 -8.947148 24.020214 3.649626 -17.187852 -11.528990 -0.004100 -0.415800 1.142400 2.773846 0.346337 -3.059144 3.550767 -0.022308 -1.498376 14.169909 -25.351418 5.436075 5.553100 -12.121400 10.096900 -88.156530 6.958411 10.624640 17.287325 -30.976926 -4.495901 0.163612 1.811843 3.462746 -7.125000 0.000000 0.000000 82.022105 3.092653 3.632915 -108.350384 57.253847 -74.996625 0.808345 -0.795548 -87.909477 7.125000 0.000000 0.000000 
4.473849 17.645103 -26.678449 -6.524008 -2.104768 8.095178 -11.604596 -1.170032 -16.055397 1.408487 9.510494 25.947436 -2.000334 14.428880 -8.520920 0.006700 -0.527700 -1.450100 24.251284 2.777563 -11.525230 -1.418430 -8.969078 24.083835 3.676370 -17.297904 -11.635723 -0.005200 -0.465100 1.278100 2.782923 0.348729 -3.034717 3.546921 -0.018335 -1.426857 13.143804 -25.304728 5.287037 5.057100 -12.142000 9.681200 -88.053316 6.774821 10.499981 17.319182 -31.020640 -4.525175 0.177871 1.836068 3.291076 -7.125000 0.000000 0.000000 81.815866 3.580207 3.097300 -108.039236 57.317006 -74.802311 0.778038 -0.809517 -87.388193 7.125000 0.000000 0.000000 
4.481888 17.645202 -26.677953 -6.461280 -2.383347 8.139204 -11.745629 -1.056348 -16.102470 1.407918 9.513828 25.953468 -2.037191 14.635596 -8.614177 0.009700 -0.636500 -1.749200 24.111919 2.928259 -11.562669 -1.422681 -8.977057 24.105125 3.676882 -17.281326 -11.494462 -0.003300 -0.370900 1.019200 2.765707 0.502122 -3.039186 3.519873 0.061684 -1.445369 12.125551 -25.258275 5.120773 4.593700 -12.173200 9.262200 -87.985272 6.725010 10.406571 17.383718 -31.089843 -4.553027 0.187340 1.826885 3.122064 -7.125000 0.000000 0.000000 81.553865 3.849615 2.538360 -108.448008 57.255318 -75.291092 0.785941 -0.816961 -86.743731 7.125000 0.000000 0.000000 
4.484766 17.645499 -26.676663 -6.469351 -2.139822 8.095657 -11.712495 -1.181177 -16.062351 1.408377 9.513217 25.954180 -2.015979 14.518521 -8.559266 0.009500 -0.629000 -1.728600 24.155420 2.819358 -11.542799 -1.426574 -8.986747 24.135371 3.691339 -17.352472 -11.648270 -0.004900 -0.452500 1.243400 2.787893 0.418242 -3.027649 3.499746 0.022499 -1.436223 11.265023 -25.208179 4.892621 4.225600 -12.203000 8.858500 -87.902502 6.690887 10.403912 17.489766 -31.211637 -4.601635 0.192256 1.836148 2.939778 -7.125000 0.000000 0.000000 81.287805 4.084342 2.090838 -108.971608 57.171170 -75.872103 0.790335 -0.827851 -86.549797 7.125000 0.000000 0.000000 
4.487545 17.645996 -26.678251 -6.446717 -2.051771 8.113524 -11.732973 -1.218803 -16.115008 1.410397 9.517966 25.967911 -2.007162 14.470165 -8.530528 0.010400 -0.659500 -1.812300 24.137232 2.829498 -11.570238 -1.430648 -8.996085 24.164591 3.703449 -17.405854 -11.730166 -0.006300 -0.514500 1.413800 2.797757 0.404594 -3.030280 3.508820 0.018074 -1.463427 10.798329 -25.179258 4.677278 4.038600 -12.225100 8.582900 -87.821898 6.648432 10.383248 17.583112 -31.312888 -4.642913 0.199090 1.838489 2.763434 -7.125000 0.000000 0.000000 81.041171 4.377658 1.562571 -109.373874 57.107990 -76.344261 0.793265 -0.836359 -86.228210 7.125000 0.000000 0.000000 
4.489629 17.646790 -26.681129 -6.419868 -1.938529 8.144408 -11.752098 -1.245134 -16.199136 1.411693 9.521610 25.976548 -1.990812 14.379738 -8.470387 0.011500 -0.692500 -1.903200 24.118854 2.830857 -11.613371 -1.434088 -9.003114 24.188112 3.717080 -17.464957 -11.817237 -0.008300 -0.586600 1.611800 2.808227 0.375227 -3.038980 3.536526 0.004782 -1.539411 11.008936 -25.132331 4.116459 4.188600 -12.229900 8.287300 -87.742723 6.633578 10.391947 17.686935 -31.422002 -4.686010 0.204287 1.837583 2.592476 -7.125000 0.000000 0.000000 80.798300 4.654099 1.016732 -109.877502 57.026185 -76.909414 0.799917 -0.843748 -85.977419 7.125000 0.000000 0.000000 
4.490820 17.647683 -26.685397 -6.387129 -1.800875 8.190476 -11.770754 -1.271571 -16.310253 1.412673 9.524706 25.982579 -1.968591 14.255526 -8.389994 0.012500 -0.722500 -1.985500 24.098109 2.833703 -11.687715 -1.440528 -9.016395 24.231483 3.732705 -17.533105 -11.919820 -0.010600 -0.663900 1.824400 2.818611 0.331194 -3.049739 3.579510 -0.016566 -1.642862 11.744007 -25.063152 3.308755 4.595300 -12.216100 7.989100 -87.661378 6.626547 10.428649 17.798712 -31.537149 -4.731001 0.208449 1.835914 2.427029 -7.125000 0.000000 0.000000 80.562873 4.930557 0.456056 -110.455775 56.929725 -77.541117 0.806841 -0.850749 -85.783676 7.125000 0.000000 0.000000 
4.492011 17.648775 -26.690259 -6.346216 -1.680019 8.249497 -11.801286 -1.284992 -16.432975 1.412050 9.525655 25.980257 -1.946214 14.131153 -8.306885 0.013600 -0.753300 -2.070200 24.063487 2.844283 -11.785984 -1.448511 -9.032250 24.283044 3.750314 -17.605394 -12.002875 -0.012300 -0.716200 1.968100 2.824415 0.292530 -3.058458 3.624794 -0.035942 -1.760763 12.936398 -24.960527 2.277305 5.228200 -12.182200 7.682500 -87.574787 6.622230 10.493000 17.918816 -31.659475 -4.778714 0.211144 1.834518 2.272058 -7.125000 0.000000 0.000000 80.338929 5.210437 -0.130111 -111.120733 56.815531 -78.250567 0.813811 -0.857632 -85.617878 7.125000 0.000000 0.000000 
4.493698 17.649767 -26.694428 -6.300170 -1.585827 8.308234 -11.844742 -1.294001 -16.538330 1.409447 9.523400 25.967616 -1.927421 14.027022 -8.234688 0.014500 -0.778100 -2.138500 24.014600 2.853755 -11.886246 -1.457062 -9.049252 24.338250 3.762824 -17.657287 -12.069252 -0.013800 -0.758100 2.083400 2.825301 0.265574 -3.059601 3.657652 -0.049619 -1.865595 14.230911 -24.828159 1.172126 5.917100 -12.136600 7.360700 -87.484807 6.604155 10.573507 18.041114 -31.783714 -4.826941 0.212273 1.833246 2.130871 -7.125000 0.000000 0.000000 80.120972 5.484730 -0.726394 -111.885550 56.679080 -79.047177 0.818888 -0.865280 -85.469336 7.125000 0.000000 0.000000 
4.496279 17.650660 -26.697008 -6.251810 -1.518758 8.357389 -11.898262 -1.304183 -16.609359 1.405101 9.517874 25.945506 -1.913996 13.953066 -8.183387 0.015100 -0.794400 -2.183200 23.956019 2.857447 -11.974963 -1.465338 -9.065633 24.390761 3.771819 -17.694146 -12.116825 -0.014600 -0.779500 2.142300 2.821515 0.253744 -3.051258 3.674592 -0.055972 -1.935504 15.357271 -24.698207 0.208495 6.520300 -12.092100 7.080600 -87.390483 6.569564 10.673873 18.169983 -31.915556 -4.878273 0.211890 1.833990 1.999775 -7.125000 0.000000 0.000000 79.912057 5.759257 -1.333245 -112.736453 56.520667 -79.916731 0.821471 -0.874040 -85.312336 7.125000 0.000000 0.000000 
4.499355 17.651553 -26.698298 -6.206632 -1.473436 8.398272 -11.954576 -1.314540 -16.654127 1.399793 9.510261 25.917571 -1.904871 13.903533 -8.145875 0.015500 -0.804500 -2.211000 23.895595 2.855819 -12.051906 -1.472458 -9.079823 24.435266 3.780866 -17.728867 -12.142468 -0.014300 -0.771200 2.119500 2.813826 0.256442 -3.034871 3.673981 -0.054963 -1.963644 16.138319 -24.604213 -0.486810 6.939800 -12.061100 6.873500 -87.293104 6.508352 10.780907 18.297320 -32.045407 -4.928983 0.210912 1.833931 1.885197 -7.125000 0.000000 0.000000 79.713403 6.036697 -1.949430 -113.662790 56.339879 -80.848425 0.821290 -0.883974 -85.118976 7.125000 0.000000 0.000000 
4.503226 17.652248 -26.697604 -6.168708 -1.461064 8.426578 -12.009362 -1.326893 -16.665915 1.393996 9.501728 25.887747 -1.902206 13.890375 -8.132184 0.015500 -0.802900 -2.206600 23.836780 2.854011 -12.100774 -1.477656 -9.090324 24.468525 3.782311 -17.734764 -12.156813 -0.014200 -0.768100 2.111000 2.805271 0.276737 -3.013771 3.664173 -0.045206 -1.959098 16.560879 -24.555324 -0.899004 7.167900 -12.046700 6.743600 -87.203182 6.439835 10.890526 18.428982 -32.179500 -4.980665 0.208943 1.831823 1.779248 -7.125000 0.000000 0.000000 79.518011 6.312800 -2.565979 -114.646265 56.138018 -81.824185 0.818226 -0.894973 -84.858081 7.125000 0.000000 0.000000 
4.506699 17.653141 -26.697306 -6.136755 -1.435844 8.461912 -12.053208 -1.351768 -16.685338 1.388693 9.493274 25.859330 -1.899551 13.876256 -8.115154 0.015400 -0.802600 -2.205700 23.787328 2.850082 -12.152823 -1.480830 -9.097067 24.489278 3.784983 -17.745199 -12.168593 -0.014100 -0.766000 2.105300 2.799329 0.295657 -2.997699 3.655629 -0.035660 -1.935958 16.548077 -24.567021 -0.949578 7.160500 -12.053500 6.717500 -87.120642 6.363783 11.002591 18.566614 -32.318952 -5.033978 0.206336 1.827963 1.676170 -7.125000 0.000000 0.000000 79.324587 6.586420 -3.173777 -115.672483 55.915846 -82.829400 0.812213 -0.906857 -84.518044 7.125000 0.000000 0.000000 
4.509776 17.654233 -26.697107 -6.114405 -1.403577 8.502240 -12.083914 -1.377567 -16.714523 1.384103 9.485903 25.834319 -1.895782 13.855850 -8.095175 0.015300 -0.799700 -2.198000 23.750847 2.846175 -12.206255 -1.482542 -9.100308 24.498713 3.791087 -17.766535 -12.172125 -0.013800 -0.757900 2.082800 2.797160 0.312060 -2.984500 3.650508 -0.027440 -1.919130 16.534663 -24.575445 -0.995104 7.153800 -12.058700 6.693200 -87.048387 6.303469 11.118631 18.717906 -32.472455 -5.092242 0.202264 1.822776 1.568541 -7.125000 0.000000 0.000000 79.131031 6.859837 -3.773257 -116.730975 55.674403 -83.854487 0.804267 -0.919311 -84.083880 7.125000 0.000000 0.000000 
4.512456 17.655424 -26.697107 -6.100179 -1.366522 8.544677 -12.102782 -1.408585 -16.748403 1.380148 9.479800 25.813409 -1.892251 13.835715 -8.075677 0.015200 -0.797200 -2.190900 23.726034 2.846154 -12.256705 -1.482899 -9.100791 24.499442 3.798889 -17.794043 -12.172645 -0.013700 -0.756200 2.078200 2.798821 0.324435 -2.971431 3.650130 -0.021263 -1.902205 16.526132 -24.578909 -1.031038 7.150000 -12.060900 6.675700 -86.985475 6.255644 11.242231 18.883541 -32.640789 -5.156058 0.197536 1.817212 1.444964 -7.125000 0.000000 0.000000 78.936726 7.145473 -4.359372 -117.810285 55.414649 -84.888930 0.794644 -0.932257 -83.548275 7.125000 0.000000 0.000000 
4.514540 17.656615 -26.697107 -6.097939 -1.325435 8.588103 -12.104966 -1.448440 -16.783590 1.376952 9.474494 25.795365 -1.889905 13.821559 -8.057053 0.015100 -0.792300 -2.177500 23.718031 2.857749 -12.300225 -1.482070 -9.098872 24.491939 3.810151 -17.834717 -12.175534 -0.013800 -0.757900 2.082800 2.804591 0.332162 -2.960745 3.653457 -0.017349 -1.888423 16.514350 -24.576782 -1.053198 7.146900 -12.060500 6.663700 -86.932223 6.230693 11.370552 19.064652 -32.826195 -5.227249 0.192044 1.814121 1.308313 -7.125000 0.000000 0.000000 78.742732 7.432103 -4.934524 -118.933169 55.128298 -85.953405 0.787044 -0.946020 -82.928506 7.125000 0.000000 0.000000 
4.516326 17.657905 -26.697207 -6.100330 -1.276727 8.630079 -12.099456 -1.499293 -16.816263 1.373869 9.469726 25.778649 -1.888549 13.812665 -8.036235 0.014900 -0.789500 -2.169700 23.717619 2.874897 -12.333232 -1.480002 -9.094635 24.477656 3.821401 -17.876465 -12.189435 -0.014500 -0.777900 2.138000 2.813385 0.331748 -2.950712 3.659590 -0.017487 -1.874455 16.477439 -24.573242 -1.062506 7.132200 -12.059300 6.652700 -86.889474 6.218272 11.498134 19.254040 -33.020788 -5.302778 0.185892 1.813134 1.158721 -7.125000 0.000000 0.000000 78.548460 7.729286 -5.500769 -120.107855 54.810562 -87.054854 0.779312 -0.961537 -82.227412 7.125000 0.000000 0.000000 
4.518013 17.659195 -26.697504 -6.104066 -1.218625 8.670406 -12.091252 -1.562852 -16.845004 1.370740 9.464819 25.761570 -1.888291 13.809272 -8.013993 0.014900 -0.787700 -2.164800 23.720059 2.885938 -12.362163 -1.476929 -9.088492 24.457574 3.831880 -17.916171 -12.205288 -0.015500 -0.803400 2.207900 2.823025 0.324132 -2.943472 3.663909 -0.021228 -1.864991 16.411874 -24.570487 -1.054013 7.103400 -12.058500 6.644800 -86.854375 6.218738 11.623503 19.444797 -33.217256 -5.380376 0.180259 1.814528 1.005462 -7.125000 0.000000 0.000000 78.357467 8.026557 -6.058877 -121.343719 54.455208 -88.200444 0.770205 -0.979655 -81.463065 7.125000 0.000000 0.000000 
